#!OML:ASF E:\motion texture\Top Level 1\Subject 1\Session 1\male.ASF
:FULLY-SPECIFIED
:DEGREES
589
root -37.5528 17.8251 0.286823 159.41 -76.6997 -154.948
lowerback 0.788647 -4.74519 0.314318
upperback -1.28444 -6.4133 -2.62919
thorax -2.09634 -3.24948 -2.68998
lowerneck -13.38 -6.58215 -13.7947
upperneck 7.15549 -8.08924 14.6523
head 5.53824 -3.51772 6.16792
rclavicle 8.27441e-015 4.45278e-014
rhumerus 43.0709 15.0699 -57.2463
rradius 81.7285
rwrist 26.7757
rhand -42.1222 -29.0132
rfingers 7.12502
rthumb -15.0129 -58.4489
lclavicle 8.27441e-015 4.45278e-014
lhumerus 40.4537 -31.767 92.8436
lradius 75.2723
lwrist 16.3168
lhand -21.4421 52.436
lfingers 7.12502
lthumb 4.94745 82.3582
rfemur -23.8678 -0.289391 28.007
rtibia 61.2556
rfoot -3.57401 -13.0741
rtoes -1.59828
lfemur -21.5596 -0.109776 -13.0104
ltibia 28.2152
lfoot -5.79917 -3.98778
ltoes 2.92335
590
root -37.6895 17.8264 0.274169 159.337 -76.8618 -155.119
lowerback 0.810059 -4.71398 0.115702
upperback -1.19747 -6.38008 -2.81345
thorax -2.01676 -3.23228 -2.77306
lowerneck -13.3151 -6.65899 -13.8991
upperneck 7.30044 -8.22097 14.8128
head 5.60412 -3.5778 6.22556
rclavicle -8.99501e-015 -1.27222e-014
rhumerus 42.4507 15.8187 -57.1079
rradius 82.2248
rwrist 26.6378
rhand -42.218 -28.8522
rfingers 7.12502
rthumb -15.1051 -58.281
lclavicle -8.99501e-015 -1.27222e-014
lhumerus 39.2337 -31.8457 93.0818
lradius 76.2291
lwrist 16.5749
lhand -21.3308 52.2831
lfingers 7.12502
lthumb 5.05493 82.2028
rfemur -24.5128 -0.478669 27.9111
rtibia 61.6103
rfoot -3.38146 -13.2718
rtoes -1.18694
lfemur -20.9354 -0.241764 -13.2778
ltibia 28.4417
lfoot -6.18937 -4.04808
ltoes 3.1195
591
root -37.8246 17.8276 0.261446 159.237 -77.0334 -155.252
lowerback 0.826894 -4.67896 -0.0751334
upperback -1.1089 -6.34117 -2.98878
thorax -1.93254 -3.21243 -2.85196
lowerneck -13.239 -6.73984 -14.0095
upperneck 7.43688 -8.35805 14.9713
head 5.66685 -3.6413 6.28308
rclavicle 3.13086e-014 1.90833e-014
rhumerus 41.7948 16.6417 -56.9743
rradius 82.7248
rwrist 26.4965
rhand -42.2808 -28.6585
rfingers 7.12502
rthumb -15.1657 -58.0827
lclavicle 3.13086e-014 1.90833e-014
lhumerus 37.9352 -31.9069 93.3193
lradius 77.1827
lwrist 16.8183
lhand -21.2055 52.1039
lfingers 7.12502
lthumb 5.17589 82.0207
rfemur -25.1462 -0.664581 27.8269
rtibia 61.829
rfoot -3.22864 -13.4661
rtoes -0.77624
lfemur -20.3121 -0.375419 -13.5356
ltibia 28.6391
lfoot -6.5977 -4.07692
ltoes 3.18931
592
root -37.9581 17.8286 0.248657 159.116 -77.2152 -155.349
lowerback 0.836689 -4.63963 -0.258376
upperback -1.01737 -6.29582 -3.15665
thorax -1.84102 -3.18953 -2.92839
lowerneck -13.1579 -6.82634 -14.12
upperneck 7.56601 -8.50296 15.126
head 5.72791 -3.70914 6.33851
rclavicle 2.56929e-014 5.08889e-014
rhumerus 41.1074 17.5335 -56.8514
rradius 83.2208
rwrist 26.3564
rhand -42.3202 -28.4468
rfingers 7.12502
rthumb -15.2036 -57.8681
lclavicle 2.56929e-014 5.08889e-014
lhumerus 36.5662 -31.9511 93.5516
lradius 78.125
lwrist 17.0424
lhand -21.0681 51.9016
lfingers 7.12502
lthumb 5.30863 81.8151
rfemur -25.7659 -0.846534 27.7522
rtibia 61.9073
rfoot -3.11631 -13.6561
rtoes -0.356486
lfemur -19.6922 -0.512774 -13.7854
ltibia 28.8096
lfoot -7.02494 -4.07846
ltoes 3.18733
593
root -38.0901 17.8294 0.235862 158.967 -77.4059 -155.404
lowerback 0.841674 -4.59595 -0.432982
upperback -0.924402 -6.24387 -3.31489
thorax -1.74485 -3.16347 -3.0004
lowerneck -13.0681 -6.91761 -14.2329
upperneck 7.68544 -8.65426 15.277
head 5.78582 -3.78084 6.39244
rclavicle -7.33515e-014 9.54166e-015
rhumerus 40.391 18.4946 -56.7392
rradius 83.7037
rwrist 26.2297
rhand -42.3431 -28.2033
rfingers 7.12502
rthumb -15.2257 -57.623
lclavicle -7.33515e-014 9.54166e-015
lhumerus 35.13 -31.9763 93.7803
lradius 79.0481
lwrist 17.2454
lhand -20.9254 51.6758
lfingers 7.12502
lthumb 5.44637 81.5858
rfemur -26.368 -1.0235 27.6878
rtibia 61.8418
rfoot -3.04548 -13.8387
rtoes 0.0544798
lfemur -19.0761 -0.652621 -14.0257
ltibia 28.9553
lfoot -7.46599 -4.07012
ltoes 3.13348
